<svg xmlns="http://www.w3.org/2000/svg" xmlns:xlink="http://www.w3.org/1999/xlink" width="100" zoomAndPan="magnify" viewBox="0 0 75 74.999997" height="100" preserveAspectRatio="xMidYMid meet" version="1.0"><defs><clipPath id="6a1ce8bd06"><path d="M 6 28.4375 L 60 28.4375 L 60 46.4375 L 6 46.4375 Z M 6 28.4375 " clip-rule="nonzero"/></clipPath><clipPath id="7cdd6f0c97"><path d="M 38 28.4375 L 68.957031 28.4375 L 68.957031 46.4375 L 38 46.4375 Z M 38 28.4375 " clip-rule="nonzero"/></clipPath></defs><g clip-path="url(#6a1ce8bd06)"><path fill="#5e17eb" d="M 6.914062 46.265625 L 32.609375 29.726562 C 32.609375 29.726562 58.304688 46.265625 58.304688 46.265625 C 58.574219 46.4375 58.929688 46.363281 59.101562 46.097656 C 59.273438 45.832031 59.195312 45.476562 58.929688 45.308594 C 58.929688 45.308594 32.921875 28.570312 32.921875 28.570312 C 32.734375 28.445312 32.488281 28.445312 32.300781 28.570312 C 32.300781 28.570312 6.289062 45.308594 6.289062 45.308594 C 6.023438 45.476562 5.949219 45.832031 6.121094 46.097656 C 6.292969 46.363281 6.648438 46.4375 6.914062 46.265625 Z M 6.914062 46.265625 " fill-opacity="1" fill-rule="evenodd"/></g><g clip-path="url(#7cdd6f0c97)"><path fill="#5e17eb" d="M 38.964844 33.109375 L 43.691406 30.066406 C 43.691406 30.066406 67.984375 45.921875 67.984375 45.921875 C 68.25 46.09375 68.605469 46.023438 68.777344 45.757812 C 68.953125 45.496094 68.878906 45.140625 68.613281 44.96875 C 68.613281 44.96875 44.007812 28.910156 44.007812 28.910156 C 43.816406 28.785156 43.570312 28.785156 43.378906 28.90625 C 43.378906 28.90625 41.289062 30.253906 38.339844 32.152344 C 38.074219 32.320312 37.996094 32.675781 38.167969 32.941406 C 38.339844 33.207031 38.699219 33.28125 38.964844 33.109375 Z M 38.964844 33.109375 " fill-opacity="1" fill-rule="evenodd"/></g><path fill="#5e17eb" d="M 20.871094 36.769531 L 20.871094 32.457031 C 20.871094 32.144531 20.613281 31.890625 20.300781 31.890625 L 15.519531 31.890625 C 15.199219 31.890625 14.945312 32.144531 14.945312 32.457031 L 14.945312 40.046875 C 14.945312 40.363281 15.199219 40.617188 15.519531 40.617188 C 15.832031 40.617188 16.089844 40.363281 16.089844 40.046875 L 16.089844 33.027344 C 16.089844 33.027344 19.726562 33.027344 19.726562 33.027344 L 19.726562 36.769531 C 19.726562 37.082031 19.984375 37.339844 20.300781 37.339844 C 20.613281 37.339844 20.871094 37.082031 20.871094 36.769531 Z M 20.871094 36.769531 " fill-opacity="1" fill-rule="evenodd"/></svg>